<svg width="147" height="46" viewBox="0 0 147 46" fill="none" xmlns="http://www.w3.org/2000/svg">
<g clip-path="url(#clip0_717_453)">
<path d="M86.2285 28.2313C85.1739 27.2156 82.1839 25.1999 79.9006 21.4437C78.3819 18.9625 75.7927 17.2854 73.0453 17.3436C70.3032 17.2854 67.7141 18.9625 66.1901 21.4437C63.9278 25.1999 60.9537 27.2156 59.8621 28.2313C58.5175 29.5063 52.8381 32.5325 54.0615 39.1455C55.2849 45.6739 61.4441 45.9649 61.4441 45.9649C61.4441 45.9649 64.3233 46.2717 69.2908 45.0708C71.7345 44.5135 74.2718 44.5135 76.7155 45.0708C81.683 46.2717 84.5622 45.9649 84.5622 45.9649C84.5622 45.9649 90.7266 45.6739 91.9448 39.1455C93.2525 32.5325 87.5732 29.5063 86.2285 28.2313ZM57.679 24.3799C61.0592 23.9143 62.2351 20.4544 61.8976 17.132C61.5918 14.1958 59.6248 10.8469 56.3871 11.1432C53.2758 11.4236 51.3563 14.4974 51.3722 18.1054C51.388 21.5389 53.7873 24.9195 57.679 24.3799ZM67.1024 13.6773C70.4456 13.3599 71.6321 9.92112 71.553 6.54053C71.4686 2.83722 69.4437 -0.162463 66.227 0.0068308C63.3794 0.160254 61.0803 3.03296 60.9537 6.85266C60.8377 10.8469 63.39 14.0318 67.1024 13.6773ZM88.4644 24.3799C85.0842 23.9143 83.9083 20.4544 84.2458 17.132C84.5516 14.1958 86.5186 10.8469 89.7564 11.1432C92.8676 11.4236 94.7871 14.4974 94.7712 18.1054C94.7554 21.5389 92.3824 24.9195 88.4644 24.3799ZM79.0411 13.6773C75.6978 13.3599 74.5113 9.92112 74.5904 6.54053C74.6748 2.83722 76.6997 -0.162463 79.9164 0.0068308C82.764 0.160254 85.0631 3.03296 85.1897 6.85266C85.3057 10.8469 82.7534 14.0318 79.0411 13.6773Z" fill="#2932E1"/>
<path d="M70.3245 38.6537H65.5417C65.1828 38.6577 64.8268 38.5881 64.4957 38.4492C64.1645 38.3104 63.8651 38.1051 63.6158 37.8461C63.3665 37.587 63.1725 37.2796 63.0457 36.9427C62.919 36.6058 62.8621 36.2465 62.8787 35.8868C62.861 35.5329 62.9143 35.179 63.0355 34.8461C63.1568 34.5133 63.3434 34.2083 63.5845 33.9492C63.8255 33.6901 64.1159 33.4823 64.4385 33.338C64.7612 33.1937 65.1094 33.116 65.4626 33.1093H70.1347V30.0038H65.4784C64.7126 29.9752 63.9491 30.1048 63.2352 30.3844C62.5213 30.6641 61.8723 31.0879 61.3285 31.6295C60.7846 32.1712 60.3575 32.8192 60.0735 33.5333C59.7896 34.2475 59.6549 35.0125 59.6778 35.781C59.6778 39.3044 61.8715 41.7804 65.6893 41.7804H70.3193L70.3245 38.6537ZM73.9104 29.9033H77.0269V37.183C77.0269 38.3257 77.4804 38.659 78.0815 38.659H81.3088V29.9033H84.4411V41.7962H77.8179C75.1285 41.7962 73.9104 40.3467 73.9104 38.2093V29.9033Z" fill="white"/>
<path d="M71.4422 41.7802V24.9937H68.2202V41.7802H71.4422Z" fill="white"/>
<path d="M43.2831 44.5787H48.3665V27.1203H43.2831V44.5787ZM43.2831 20.7189V25.1628H48.3665V20.7189H43.2831ZM35.9479 41.177H29.2245C28.2911 41.177 27.5634 40.5157 27.5634 39.3095C27.5513 39.069 27.5878 38.8285 27.6706 38.6024C27.7534 38.3764 27.8809 38.1695 28.0454 37.9941C28.2099 37.8187 28.408 37.6785 28.6278 37.5818C28.8476 37.4851 29.0847 37.4339 29.3247 37.4314H35.9479V41.177ZM35.0146 27.0885H24.1674V30.7601H33.6857C35.0515 30.7601 35.9479 31.5008 35.9479 32.744V34.0349H27.9958C24.9373 34.0349 22.8016 35.8866 22.8016 39.3253C22.8016 42.9916 24.9795 44.6528 27.9958 44.6528H40.8415V32.1145C40.8415 29.0989 38.4633 27.0885 35.0146 27.0885ZM12.2393 30.3369H5.32074V25.3004H12.2182C14.164 25.3004 15.3136 26.2103 15.3136 27.6811C15.2925 29.628 14.1587 30.3369 12.2393 30.3369ZM12.5346 40.3358H5.32074V35.0983H12.5029C14.375 35.0983 15.6669 36.0876 15.6669 37.7435C15.6669 39.3994 14.4066 40.3358 12.5346 40.3358ZM21.5782 38.4418C21.5782 35.5638 20.165 33.3948 17.887 32.7176C19.8908 31.8605 20.7293 30.1464 20.7293 27.3795C20.7293 23.7609 17.7235 20.5654 11.5801 20.5654H0V44.8327H12.8299C18.5567 44.8327 21.5782 42.6107 21.5782 38.4418ZM115.421 30.7284V34.1143H102.138V30.7284H115.421ZM115.448 40.0925C115.448 40.7908 115.073 41.1929 114.488 41.1929H102.138V37.5636H115.448V40.0925ZM120.811 24.8242V21.1633H96.7119V24.8666H105.85L105.059 27.279H97.7718V44.7375H116.476C118.401 44.7375 119.677 43.6159 119.677 41.6055V27.279H110.001L110.792 24.8242H120.811ZM144.862 25.02H141.229V25.877H133.751V25.02H130.118V25.877H127.982V28.8767H130.118V33.5905H143.154C143.378 33.5905 143.6 33.5462 143.807 33.46C144.015 33.3739 144.203 33.2476 144.362 33.0884C144.52 32.9293 144.646 32.7403 144.732 32.5324C144.818 32.3244 144.862 32.1015 144.862 31.8764V28.8767H146.998V25.877H144.862V25.02ZM141.229 29.9507C141.229 30.1205 141.162 30.2833 141.042 30.4033C140.922 30.5234 140.76 30.5908 140.591 30.5908H133.736V28.8767H141.213L141.229 29.9507Z" fill="#E10602"/>
<path d="M138.239 21.1634V19.8726H133.968V21.1634H123.495V38.9499C123.495 42.267 122.968 43.9441 122.588 44.7376H126.448C126.943 42.8497 127.172 40.9015 127.128 38.9499V24.1631H146.998V21.1634H138.239Z" fill="#E10602"/>
<path d="M140.886 41.0922C143.296 39.8014 146.159 38.1825 146.159 38.1825V34.876H128.626V38.1825C128.626 38.1825 131.468 39.8014 133.899 41.0922C133.122 41.4321 132.299 41.6567 131.458 41.7588H127.771V44.7374H131.832C132.27 44.7374 133.456 44.7374 137.395 42.8751C141.329 44.7374 142.521 44.7374 142.959 44.7374H147.008V41.7588H143.343C142.496 41.6578 141.669 41.4332 140.886 41.0922ZM137.385 39.5739C137.385 39.5739 134.363 38.2142 133.203 37.5635H141.566C140.401 38.2142 137.385 39.5739 137.385 39.5739Z" fill="#E10602"/>
</g>
<defs>
<clipPath id="clip0_717_453">
<rect width="147" height="46" fill="white"/>
</clipPath>
</defs>
</svg>
