<?xml version="1.0" encoding="UTF-8" standalone="no"?>
<!-- Created with Inkscape (http://www.inkscape.org/) -->

<svg
   version="1.1"
   id="svg1"
   width="186.116"
   height="56.692932"
   viewBox="0 0 186.116 56.692932"
   sodipodi:docname="upload_l7u5t5gfskmekbvtdrbbqr4ypt.pdf"
   xmlns:inkscape="http://www.inkscape.org/namespaces/inkscape"
   xmlns:sodipodi="http://sodipodi.sourceforge.net/DTD/sodipodi-0.dtd"
   xmlns="http://www.w3.org/2000/svg"
   xmlns:svg="http://www.w3.org/2000/svg">
  <defs
     id="defs1">
    <clipPath
       clipPathUnits="userSpaceOnUse"
       id="clipPath2">
      <path
         d="M 0,42.52 H 139.587 V 0 H 0 Z"
         transform="translate(-3.8594001,-13.278301)"
         id="path2" />
    </clipPath>
    <clipPath
       clipPathUnits="userSpaceOnUse"
       id="clipPath4">
      <path
         d="M 0,42.52 H 139.587 V 0 H 0 Z"
         transform="translate(-22.0498,-3.1113003)"
         id="path4" />
    </clipPath>
    <clipPath
       clipPathUnits="userSpaceOnUse"
       id="clipPath6">
      <path
         d="M 0,42.52 H 139.587 V 0 H 0 Z"
         transform="translate(-48.909201,-37.933601)"
         id="path6" />
    </clipPath>
    <clipPath
       clipPathUnits="userSpaceOnUse"
       id="clipPath8">
      <path
         d="M 0,42.52 H 139.587 V 0 H 0 Z"
         transform="translate(-43.615201,-33.156301)"
         id="path8" />
    </clipPath>
    <clipPath
       clipPathUnits="userSpaceOnUse"
       id="clipPath10">
      <path
         d="M 0,42.52 H 139.587 V 0 H 0 Z"
         transform="translate(-22.529301,-13.4434)"
         id="path10" />
    </clipPath>
    <clipPath
       clipPathUnits="userSpaceOnUse"
       id="clipPath12">
      <path
         d="M 0,42.52 H 139.587 V 0 H 0 Z"
         transform="translate(-72.556602,-31.514601)"
         id="path12" />
    </clipPath>
    <clipPath
       clipPathUnits="userSpaceOnUse"
       id="clipPath14">
      <path
         d="M 0,42.52 H 139.587 V 0 H 0 Z"
         transform="translate(-96.867205,-29.668001)"
         id="path14" />
    </clipPath>
    <clipPath
       clipPathUnits="userSpaceOnUse"
       id="clipPath16">
      <path
         d="M 0,42.52 H 139.587 V 0 H 0 Z"
         transform="translate(-117.3555,-28.175801)"
         id="path16" />
    </clipPath>
    <clipPath
       clipPathUnits="userSpaceOnUse"
       id="clipPath18">
      <path
         d="M 0,42.52 H 139.587 V 0 H 0 Z"
         transform="translate(-137.2773,-30.917001)"
         id="path18" />
    </clipPath>
    <clipPath
       clipPathUnits="userSpaceOnUse"
       id="clipPath20">
      <path
         d="M 0,42.52 H 139.587 V 0 H 0 Z"
         transform="translate(-67.273901,-9.4473005)"
         id="path20" />
    </clipPath>
    <clipPath
       clipPathUnits="userSpaceOnUse"
       id="clipPath22">
      <path
         d="M 0,42.52 H 139.587 V 0 H 0 Z"
         transform="translate(-73.808602,-6.3574002)"
         id="path22" />
    </clipPath>
    <clipPath
       clipPathUnits="userSpaceOnUse"
       id="clipPath24">
      <path
         d="M 0,42.52 H 139.587 V 0 H 0 Z"
         transform="translate(-80.2813,-12.1768)"
         id="path24" />
    </clipPath>
    <clipPath
       clipPathUnits="userSpaceOnUse"
       id="clipPath26">
      <path
         d="M 0,42.52 H 139.587 V 0 H 0 Z"
         transform="translate(-82.2949,-4.7275001)"
         id="path26" />
    </clipPath>
    <clipPath
       clipPathUnits="userSpaceOnUse"
       id="clipPath28">
      <path
         d="M 0,42.52 H 139.587 V 0 H 0 Z"
         transform="translate(-93.043,-2.4667998)"
         id="path28" />
    </clipPath>
    <clipPath
       clipPathUnits="userSpaceOnUse"
       id="clipPath30">
      <path
         d="M 0,42.52 H 139.587 V 0 H 0 Z"
         transform="translate(-101.0703,-3.4053003)"
         id="path30" />
    </clipPath>
    <clipPath
       clipPathUnits="userSpaceOnUse"
       id="clipPath32">
      <path
         d="M 0,42.52 H 139.587 V 0 H 0 Z"
         transform="translate(-109.07031,-4.4043004)"
         id="path32" />
    </clipPath>
    <clipPath
       clipPathUnits="userSpaceOnUse"
       id="clipPath34">
      <path
         d="M 0,42.52 H 139.587 V 0 H 0 Z"
         transform="translate(-114.85551,-2.4667998)"
         id="path34" />
    </clipPath>
    <clipPath
       clipPathUnits="userSpaceOnUse"
       id="clipPath36">
      <path
         d="M 0,42.52 H 139.587 V 0 H 0 Z"
         transform="translate(-132.2559,-1.6825998)"
         id="path36" />
    </clipPath>
  </defs>
  <sodipodi:namedview
     id="namedview1"
     pagecolor="#ffffff"
     bordercolor="#000000"
     borderopacity="0.25"
     inkscape:showpageshadow="2"
     inkscape:pageopacity="0.0"
     inkscape:pagecheckerboard="0"
     inkscape:deskcolor="#d1d1d1">
    <inkscape:page
       x="0"
       y="0"
       inkscape:label="1"
       id="page1"
       width="186.116"
       height="56.692932"
       margin="0 0.0013333299 0 0"
       bleed="0" />
  </sodipodi:namedview>
  <g
     id="layer-MC0"
     inkscape:groupmode="layer"
     inkscape:label="图层 1">
    <path
       id="path1"
       d="m 0,0 c 0,-6.112 7.958,-11.069 17.776,-11.069 9.818,0 17.776,4.957 17.776,11.069 0,6.113 -7.958,11.069 -17.776,11.069 C 7.958,11.069 0,6.113 0,0"
       style="fill:#ffffff;fill-opacity:1;fill-rule:nonzero;stroke:none"
       transform="matrix(1.3333333,0,0,-1.3333333,5.1458667,38.988533)"
       clip-path="url(#clipPath2)" />
    <path
       id="path3"
       d="m 0,0 c -8.689,-0.857 -16.19,3.07 -16.755,8.775 -0.564,5.704 6.025,11.024 14.713,11.883 8.69,0.86 16.191,-3.068 16.755,-8.771 C 15.276,6.18 8.69,0.859 0,0 m 17.38,18.938 c -0.739,0.221 -1.246,0.372 -0.859,1.343 0.838,2.109 0.925,3.928 0.016,5.226 -1.704,2.434 -6.366,2.303 -11.71,0.065 0,0.003 -1.678,-0.734 -1.249,0.597 0.822,2.643 0.698,4.856 -0.581,6.134 -2.899,2.901 -10.609,-0.11 -17.221,-6.719 -4.951,-4.952 -7.826,-10.2 -7.826,-14.738 0,-8.68 11.131,-13.957 22.021,-13.957 14.275,0 23.771,8.294 23.771,14.879 0,3.978 -3.351,6.236 -6.362,7.17"
       style="fill:#d52b2a;fill-opacity:1;fill-rule:nonzero;stroke:none"
       transform="matrix(1.3333333,0,0,-1.3333333,29.399733,52.544533)"
       clip-path="url(#clipPath4)" />
    <path
       id="path5"
       d="m 0,0 c -3.447,3.822 -8.532,5.279 -13.226,4.281 h -0.002 c -1.085,-0.232 -1.778,-1.301 -1.545,-2.385 0.231,-1.084 1.299,-1.778 2.385,-1.546 3.339,0.709 6.952,-0.329 9.404,-3.043 2.448,-2.715 3.113,-6.418 2.064,-9.664 l 0.001,-0.001 c -0.342,-1.058 0.236,-2.189 1.295,-2.531 1.055,-0.341 2.188,0.237 2.53,1.291 0,0.002 0,0.006 10e-4,0.008 C 4.378,-9.023 3.449,-3.818 0,0"
       style="fill:#e89214;fill-opacity:1;fill-rule:nonzero;stroke:none"
       transform="matrix(1.3333333,0,0,-1.3333333,65.212267,6.1148)"
       clip-path="url(#clipPath6)" />
    <path
       id="path7"
       d="m 0,0 c -1.678,1.861 -4.155,2.568 -6.442,2.082 -0.935,-0.199 -1.531,-1.119 -1.33,-2.055 0.2,-0.931 1.119,-1.53 2.051,-1.327 v -0.002 c 1.118,0.237 2.33,-0.108 3.151,-1.016 0.821,-0.911 1.042,-2.151 0.689,-3.239 h 0.002 c -0.293,-0.908 0.204,-1.884 1.113,-2.179 0.91,-0.291 1.885,0.205 2.178,1.115 C 2.131,-4.396 1.682,-1.861 0,0"
       style="fill:#e89214;fill-opacity:1;fill-rule:nonzero;stroke:none"
       transform="matrix(1.3333333,0,0,-1.3333333,58.1536,12.484533)"
       clip-path="url(#clipPath8)" />
    <path
       id="path9"
       d="M 0,0 C -0.304,-0.52 -0.976,-0.77 -1.502,-0.553 -2.02,-0.34 -2.182,0.241 -1.888,0.752 -1.585,1.26 -0.939,1.508 -0.423,1.303 0.102,1.111 0.29,0.523 0,0 m -2.769,-3.554 c -0.84,-1.341 -2.64,-1.928 -3.996,-1.309 -1.336,0.608 -1.73,2.166 -0.889,3.473 0.83,1.302 2.569,1.882 3.915,1.318 1.361,-0.58 1.796,-2.127 0.97,-3.482 m 3.158,9.49 C -3.746,7.012 -8.42,4.951 -10.216,1.308 c -1.829,-3.716 -0.06,-7.841 4.117,-9.19 4.328,-1.395 9.428,0.743 11.202,4.754 C 6.852,0.793 4.668,4.83 0.389,5.936"
       style="fill:#040000;fill-opacity:1;fill-rule:nonzero;stroke:none"
       transform="matrix(1.3333333,0,0,-1.3333333,30.039067,38.7684)"
       clip-path="url(#clipPath10)" />
    <path
       id="path11"
       d="M 0,0 C 2.67,0.024 5.195,0.279 7.578,0.764 L 7.695,-0.672 C 5.061,-0.995 2.836,-1.207 1.02,-1.306 L -0.145,-5.65 H 6.902 L 6.563,-6.918 H 3.801 l -2.617,-9.77 h -1.428 l 2.617,9.77 h -2.857 l -0.245,-0.914 c -1.022,-3.816 -2.765,-6.787 -5.226,-8.913 -0.205,0.386 -0.439,0.783 -0.703,1.193 2.129,1.753 3.655,4.345 4.575,7.777 z m -6.056,-10.498 c 0.467,-0.945 0.864,-1.815 1.191,-2.611 L -6.32,-13.93 c -0.308,0.957 -0.666,1.859 -1.07,2.704 z m -4.307,9.938 h 4.17 c -0.14,0.51 -0.307,1.064 -0.5,1.66 l 1.385,0.559 c 0.228,-0.634 0.43,-1.274 0.603,-1.921 L -5.43,-0.56 h 4.102 l -0.32,-1.193 h -9.035 z m -1.775,-4.326 h 3.107 c -0.322,0.839 -0.644,1.561 -0.965,2.163 l 1.232,0.709 c 0.292,-0.498 0.649,-1.2 1.077,-2.107 l -1.295,-0.765 h 2.547 c 0.963,0.976 1.869,1.94 2.715,2.891 l 1.17,-0.746 c -0.832,-0.778 -1.617,-1.491 -2.36,-2.145 h 2.926 l -0.32,-1.193 h -10.154 z m -0.395,-3.487 h 3.938 l 0.474,1.771 h 1.391 l -0.475,-1.771 h 3.784 l -0.321,-1.193 h -3.783 l -1.305,-4.867 c -0.352,-1.317 -1.185,-1.976 -2.498,-1.976 -0.552,0 -1.175,0.006 -1.867,0.018 0.059,0.411 0.113,0.883 0.167,1.417 0.726,-0.075 1.302,-0.111 1.728,-0.111 0.603,0 0.992,0.316 1.162,0.95 l 1.222,4.569 h -3.937 z m 0.942,-2.032 1.153,-0.597 c -1.071,-1.404 -2.101,-2.673 -3.085,-3.804 -0.314,0.224 -0.679,0.448 -1.094,0.671 0.883,0.945 1.891,2.188 3.026,3.73"
       style="fill:#050101;fill-opacity:1;fill-rule:nonzero;stroke:none"
       transform="matrix(1.3333333,0,0,-1.3333333,96.742133,14.673467)"
       clip-path="url(#clipPath12)" />
    <path
       id="path13"
       d="m 0,0 h -8.34 l -0.609,-2.274 h 8.34 z m -1.543,-5.761 0.613,2.293 h -8.34 l -0.613,-2.293 z m 1.256,-1.865 0.637,-1.156 c -1.368,-0.734 -2.928,-1.491 -4.684,-2.276 0.998,-0.982 2.402,-1.652 4.209,-2.012 -0.398,-0.336 -0.887,-0.816 -1.465,-1.437 -3.678,1.069 -5.773,3.573 -6.287,7.515 h -2.336 l -1.584,-5.911 c 1.674,0.534 3.19,1.069 4.541,1.603 -0.205,-0.671 -0.34,-1.199 -0.404,-1.585 -1.563,-0.497 -3.127,-1.05 -4.692,-1.659 -0.246,-0.1 -0.615,-0.273 -1.105,-0.522 l -0.539,1.305 c 0.387,0.198 0.654,0.566 0.797,1.1 L -9.477,1.23 h 4.883 c -0.123,0.597 -0.271,1.195 -0.447,1.791 l 1.492,0.522 C -3.334,2.81 -3.146,2.039 -2.99,1.23 h 4.787 l -2.344,-8.745 h -1.467 l 0.141,0.523 h -4.518 c 0.225,-1.181 0.651,-2.232 1.28,-3.152 1.537,0.697 3.146,1.536 4.824,2.518 M -13.34,3.096 c 0.777,-0.745 1.641,-1.655 2.59,-2.723 -0.553,-0.435 -1.035,-0.82 -1.447,-1.155 -1.041,1.304 -1.842,2.255 -2.403,2.852 z m -2.027,-4.83 c 0.789,-0.659 1.693,-1.504 2.717,-2.536 -0.616,-0.522 -1.098,-0.926 -1.444,-1.211 -1.117,1.254 -1.961,2.143 -2.529,2.666 z m 0.441,-5.482 c 0.455,-0.224 0.912,-0.435 1.375,-0.634 -1.41,-2.474 -2.758,-4.841 -4.047,-7.104 l -1.529,0.558 c 1.34,2.077 2.742,4.47 4.201,7.18"
       style="fill:#050101;fill-opacity:1;fill-rule:nonzero;stroke:none"
       transform="matrix(1.3333333,0,0,-1.3333333,129.15627,17.1356)"
       clip-path="url(#clipPath14)" />
    <path
       id="path15"
       d="M 0,0 H -2.316 L -2.422,-0.176 C -3.086,-2.725 -3.313,-4.957 -3.105,-6.87 -2.127,-5.329 -1.092,-3.039 0,0 M -1.209,4.849 0.043,4.625 C -0.471,3.476 -1.006,2.381 -1.561,1.344 H 2.6 L 2.24,0 H 1.313 c -1.225,-3.561 -2.6,-6.38 -4.129,-8.455 0.369,-1.387 1.021,-2.57 1.953,-3.553 -0.412,-0.484 -0.811,-0.963 -1.194,-1.435 -0.855,1.063 -1.474,2.268 -1.859,3.617 -1.121,-1.299 -2.449,-2.549 -3.986,-3.748 -0.162,0.361 -0.373,0.753 -0.633,1.175 1.746,1.28 3.185,2.617 4.318,4.008 -0.258,1.729 -0.178,3.664 0.244,5.81 -0.336,-0.48 -0.677,-0.942 -1.029,-1.39 -0.172,0.323 -0.393,0.646 -0.666,0.97 1.701,2.125 3.188,4.742 4.459,7.85 m -10.83,-6.265 1.225,4.568 h 1.234 l -0.885,-3.3 h 1.584 l 1.27,4.736 h 1.273 l -1.269,-4.736 h 1.582 l 0.89,3.319 h 1.237 l -1.389,-5.185 h -1.236 l 0.158,0.598 z m -0.059,-1.66 h 6.139 l -0.35,-1.305 h -6.138 z m 2.924,-4.289 h -2.549 l -0.228,-0.858 c -0.6,-2.237 -1.676,-3.828 -3.231,-4.773 -0.125,0.348 -0.306,0.746 -0.547,1.193 1.19,0.647 2.03,1.889 2.524,3.73 l 0.529,1.976 h 5.135 L -8.41,-9.341 c 0.726,0.497 1.558,1.081 2.496,1.752 -0.029,-0.547 -0.049,-1.024 -0.057,-1.435 -0.853,-0.547 -1.838,-1.219 -2.951,-2.014 -0.353,-0.261 -0.678,-0.509 -0.973,-0.746 l -0.666,1.193 c 0.438,0.336 0.733,0.783 0.883,1.343 z m -7.765,7.254 c 2.046,1.591 3.697,3.213 4.951,4.867 l 1.023,-0.653 c -1.697,-2.101 -3.664,-3.991 -5.902,-5.668 -0.012,0.484 -0.035,0.969 -0.072,1.454 m -1.707,-6.004 c 1.894,1.64 3.648,3.573 5.259,5.799 l 1.121,-0.578 c -0.736,-0.969 -1.474,-1.877 -2.216,-2.723 l -2.623,-9.789 h -1.313 l 2.1,7.832 c -0.741,-0.74 -1.481,-1.418 -2.225,-2.033 -0.021,0.497 -0.057,0.994 -0.103,1.492"
       style="fill:#050101;fill-opacity:1;fill-rule:nonzero;stroke:none"
       transform="matrix(1.3333333,0,0,-1.3333333,156.474,19.1252)"
       clip-path="url(#clipPath16)" />
    <path
       id="path17"
       d="m 0,0 c -0.66,0.411 -1.367,0.802 -2.115,1.176 l 0.851,0.951 C -0.428,1.74 0.287,1.381 0.879,1.045 Z m -1.219,-3.617 h -3.609 l -0.336,-1.249 h 3.609 z m -4.584,-3.636 h 3.61 l 0.339,1.269 h -3.609 z m -4.322,2.387 h 3.572 l 0.334,1.249 h -3.57 z m -0.639,-2.387 h 3.571 l 0.339,1.269 h -3.57 z m -2.039,-5.519 1.119,0.932 c 0.77,-0.585 1.481,-1.193 2.135,-1.828 l -1.191,-0.987 c -0.592,0.621 -1.281,1.249 -2.063,1.883 m 10.035,3.375 0.274,1.025 h -3.61 l -0.318,-1.193 h -1.391 l 0.321,1.193 h -3.572 l -0.375,-1.399 h -1.391 l 1.959,7.31 h 4.963 l 0.33,1.232 h -5.908 l 0.32,1.193 h 5.906 l 0.58,2.163 h 1.391 l -0.58,-2.163 H 2.309 L 1.988,-1.229 H -4.189 L -4.52,-2.461 h 5 l -1.857,-6.936 z m -11.718,-1.156 h 9.904 l 0.289,1.081 h 1.428 l -0.289,-1.081 h 3.107 l -0.32,-1.193 h -3.108 l -0.574,-2.146 c -0.377,-1.404 -1.336,-2.107 -2.881,-2.107 -0.734,0 -1.638,0.014 -2.713,0.038 0.055,0.398 0.102,0.857 0.139,1.38 1.02,-0.087 1.934,-0.131 2.744,-0.131 0.709,0 1.153,0.336 1.332,1.007 l 0.526,1.959 h -9.905 z m -2.741,7.421 h 1.95 l 1.408,5.259 h 1.43 l -1.411,-5.259 h 1.854 l -0.359,-1.343 h -1.854 l -3.148,-11.748 h -1.428 l 3.148,11.748 h -1.949 z"
       style="fill:#050101;fill-opacity:1;fill-rule:nonzero;stroke:none"
       transform="matrix(1.3333333,0,0,-1.3333333,183.0364,15.470267)"
       clip-path="url(#clipPath18)" />
    <path
       id="path19"
       d="m 0,0 -4.588,-7.765 h -1.096 l -0.4,5.766 -3.33,-5.766 h -1.111 L -11.061,0 h 1.358 L -9.357,-5.788 -5.996,0 h 0.988 L -4.605,-5.812 -1.09,0 Z"
       style="fill:#050101;fill-opacity:1;fill-rule:nonzero;stroke:none"
       transform="matrix(1.3333333,0,0,-1.3333333,89.698533,44.096533)"
       clip-path="url(#clipPath20)" />
    <path
       id="path21"
       d="M 0,0 C 0.104,0.436 0.129,0.822 0.07,1.161 0.01,1.498 -0.166,1.787 -0.457,2.025 -0.75,2.264 -1.146,2.384 -1.646,2.384 -2.318,2.384 -2.947,2.167 -3.531,1.737 -4.115,1.307 -4.533,0.728 -4.785,0 Z M -0.557,-2.36 0.641,-2.591 C 0.234,-3.255 -0.361,-3.804 -1.145,-4.237 -1.928,-4.673 -2.771,-4.89 -3.673,-4.89 c -1.19,0 -2.052,0.373 -2.587,1.12 -0.536,0.747 -0.642,1.724 -0.318,2.936 0.332,1.236 0.982,2.235 1.95,2.996 0.968,0.763 2.03,1.144 3.185,1.144 1.138,0 1.961,-0.352 2.464,-1.054 C 1.525,1.551 1.6,0.5 1.24,-0.899 h -6.325 c -0.315,-1.174 -0.252,-1.966 0.189,-2.376 0.443,-0.41 0.971,-0.616 1.586,-0.616 1.109,0 2.027,0.511 2.753,1.531"
       style="fill:#050101;fill-opacity:1;fill-rule:nonzero;stroke:none"
       transform="matrix(1.3333333,0,0,-1.3333333,98.411467,48.2164)"
       clip-path="url(#clipPath22)" />
    <path
       id="path23"
       d="M 0,0 -0.359,-1.345 H -1.816 L -1.457,0 Z m -0.773,-2.729 -2.082,-7.765 h -1.354 l 2.082,7.765 z"
       style="fill:#050101;fill-opacity:1;fill-rule:nonzero;stroke:none"
       transform="matrix(1.3333333,0,0,-1.3333333,107.04173,40.4572)"
       clip-path="url(#clipPath24)" />
    <path
       id="path25"
       d="m 0,0 c -0.15,-0.798 -0.031,-1.376 0.359,-1.736 0.391,-0.36 0.856,-0.539 1.397,-0.539 0.691,0 1.32,0.266 1.887,0.8 0.564,0.534 0.972,1.265 1.222,2.194 0.268,1 0.274,1.787 0.018,2.358 C 4.627,3.65 4.137,3.936 3.412,3.936 2.842,3.936 2.273,3.732 1.707,3.324 1.139,2.917 0.727,2.391 0.467,1.744 Z M -1.516,-3.045 H -2.17 L 0.643,7.449 H 1.996 L 0.918,3.429 c 0.891,1.004 1.881,1.507 2.973,1.507 1,0 1.744,-0.352 2.23,-1.055 C 6.609,3.179 6.672,2.158 6.313,0.818 6.004,-0.335 5.414,-1.304 4.539,-2.086 3.666,-2.869 2.697,-3.26 1.635,-3.26 c -1.184,0 -1.957,0.5 -2.323,1.499 z"
       style="fill:#050101;fill-opacity:1;fill-rule:nonzero;stroke:none"
       transform="matrix(1.3333333,0,0,-1.3333333,109.72653,50.3896)"
       clip-path="url(#clipPath26)" />
    <path
       id="path27"
       d="M 0,0 C 0.689,0 1.334,0.254 1.936,0.762 2.539,1.269 2.982,2.059 3.27,3.129 3.557,4.205 3.523,4.986 3.164,5.471 2.805,5.954 2.299,6.196 1.643,6.196 0.971,6.196 0.336,5.952 -0.262,5.463 -0.857,4.974 -1.299,4.198 -1.582,3.138 -1.883,2.015 -1.865,1.211 -1.529,0.727 -1.193,0.242 -0.684,0 0,0 m -0.371,-0.999 c -1.195,0 -2.022,0.395 -2.481,1.185 -0.459,0.791 -0.529,1.77 -0.216,2.939 0.332,1.237 0.972,2.225 1.923,2.963 0.952,0.739 1.987,1.108 3.108,1.108 C 3.164,7.196 4.006,6.808 4.49,6.03 4.975,5.253 5.063,4.282 4.75,3.118 4.426,1.907 3.785,0.918 2.834,0.151 1.881,-0.616 0.813,-0.999 -0.371,-0.999"
       style="fill:#050101;fill-opacity:1;fill-rule:nonzero;stroke:none"
       transform="matrix(1.3333333,0,0,-1.3333333,124.05733,53.403867)"
       clip-path="url(#clipPath28)" />
    <path
       id="path29"
       d="M 0,0 -0.461,-1.723 H -2.393 L -1.932,0 Z"
       style="fill:#050101;fill-opacity:1;fill-rule:nonzero;stroke:none"
       transform="matrix(1.3333333,0,0,-1.3333333,134.7604,52.152533)"
       clip-path="url(#clipPath30)" />
    <path
       id="path31"
       d="m 0,0 1.174,-0.192 c -0.403,-0.859 -0.965,-1.531 -1.688,-2.016 -0.72,-0.486 -1.525,-0.729 -2.41,-0.729 -1.201,0 -2.01,0.396 -2.428,1.185 -0.418,0.791 -0.474,1.755 -0.169,2.894 0.316,1.179 0.91,2.161 1.785,2.944 0.873,0.781 1.881,1.173 3.025,1.173 0.949,0 1.641,-0.253 2.078,-0.757 C 1.803,3.997 1.984,3.344 1.906,2.545 L 0.627,2.338 C 0.74,3.618 0.219,4.259 -0.939,4.259 -1.686,4.259 -2.336,3.977 -2.889,3.41 -3.441,2.843 -3.84,2.109 -4.082,1.208 -4.348,0.212 -4.355,-0.561 -4.104,-1.111 c 0.25,-0.551 0.739,-0.827 1.461,-0.827 1.12,0 2,0.647 2.643,1.938"
       style="fill:#050101;fill-opacity:1;fill-rule:nonzero;stroke:none"
       transform="matrix(1.3333333,0,0,-1.3333333,145.42707,50.820533)"
       clip-path="url(#clipPath32)" />
    <path
       id="path33"
       d="M 0,0 C 0.689,0 1.334,0.254 1.936,0.762 2.537,1.269 2.98,2.059 3.268,3.129 3.557,4.205 3.521,4.986 3.162,5.471 2.805,5.954 2.297,6.196 1.643,6.196 0.969,6.196 0.336,5.952 -0.262,5.463 -0.859,4.974 -1.299,4.198 -1.584,3.138 -1.885,2.015 -1.867,1.211 -1.531,0.727 -1.195,0.242 -0.686,0 0,0 m -0.373,-0.999 c -1.195,0 -2.022,0.395 -2.479,1.185 -0.459,0.791 -0.531,1.77 -0.216,2.939 0.33,1.237 0.97,2.225 1.922,2.963 C -0.195,6.827 0.84,7.196 1.961,7.196 3.162,7.196 4.006,6.808 4.49,6.03 4.975,5.253 5.061,4.282 4.748,3.118 4.424,1.907 3.785,0.918 2.832,0.151 1.881,-0.616 0.811,-0.999 -0.373,-0.999"
       style="fill:#050101;fill-opacity:1;fill-rule:nonzero;stroke:none"
       transform="matrix(1.3333333,0,0,-1.3333333,153.14067,53.403867)"
       clip-path="url(#clipPath34)" />
    <path
       id="path35"
       d="m 0,0 h -1.318 l 1.295,4.828 C 0.109,5.325 0.17,5.698 0.16,5.947 0.148,6.195 0.021,6.423 -0.223,6.631 -0.465,6.838 -0.773,6.942 -1.148,6.942 -1.664,6.942 -2.221,6.73 -2.813,6.309 -3.406,5.886 -3.818,5.24 -4.051,4.374 L -5.223,0 h -1.31 l 1.369,5.113 C -4.98,5.794 -5.035,6.276 -5.324,6.559 -5.613,6.84 -5.959,6.98 -6.361,6.98 -6.936,6.98 -7.496,6.761 -8.039,6.319 -8.582,5.879 -8.945,5.32 -9.125,4.645 L -10.371,0 h -1.293 l 2.082,7.765 h 1.164 l -0.4,-1.492 c 0.955,1.139 2,1.707 3.138,1.707 0.627,0 1.11,-0.181 1.45,-0.545 C -3.893,7.07 -3.729,6.633 -3.738,6.119 -2.809,7.36 -1.727,7.98 -0.49,7.98 0.102,7.98 0.58,7.829 0.945,7.527 1.309,7.225 1.506,6.877 1.537,6.485 1.566,6.093 1.484,5.54 1.295,4.828 Z"
       style="fill:#050101;fill-opacity:1;fill-rule:nonzero;stroke:none"
       transform="matrix(1.3333333,0,0,-1.3333333,176.3412,54.449467)"
       clip-path="url(#clipPath36)" />
  </g>
</svg>
